<?xml version="1.0" encoding="iso-8859-1"?>
<!-- Generator: Adobe Illustrator 19.0.0, SVG Export Plug-In . SVG Version: 6.00 Build 0)  -->
<svg version="1.1" id="Layer_1" xmlns="http://www.w3.org/2000/svg" xmlns:xlink="http://www.w3.org/1999/xlink" x="0px" y="0px"
	 viewBox="0 0 504.416 504.416" style="enable-background:new 0 0 504.416 504.416;" xml:space="preserve">
<path style="fill:#00C0F0;" d="M502.454,113.58c3.471-21.695,3.471-43.39-9.546-59.878c-18.224-23.431-57.275-24.298-83.308-19.959
	c-21.695,3.471-94.59,36.447-119.756,114.549c44.258-3.471,66.82,3.471,62.481,52.068c-1.736,20.827-12.149,43.39-23.431,65.085
	c-13.017,25.166-38.183,73.763-70.292,38.183c-29.505-32.108-26.902-92.854-33.844-132.773c-3.471-22.563-7.81-51.2-14.753-74.631
	c-6.075-19.959-20.827-44.258-38.183-49.464c-19.092-6.075-42.522,3.471-56.407,11.281C71.159,84.075,38.183,121.39,0,151.763v2.603
	c7.81,6.942,9.546,19.092,20.827,20.827c26.034,4.339,51.2-24.298,68.556,5.207c10.414,18.224,13.885,38.183,20.827,58.142
	c8.678,26.034,16.488,54.671,23.431,85.044c12.149,51.2,27.769,126.698,71.159,145.79c22.563,9.546,55.539-3.471,72.027-13.017
	c45.993-27.77,81.573-66.82,111.946-107.607C458.197,252.427,496.38,143.953,502.454,113.58"/>
<g>
</g>
<g>
</g>
<g>
</g>
<g>
</g>
<g>
</g>
<g>
</g>
<g>
</g>
<g>
</g>
<g>
</g>
<g>
</g>
<g>
</g>
<g>
</g>
<g>
</g>
<g>
</g>
<g>
</g>
</svg>
