<svg id="Layer_1" data-name="Layer 1" xmlns="http://www.w3.org/2000/svg" viewBox="0 0 63.7875 65.1915"><defs><style>.cls-1{fill:#fff;}</style></defs><title>disk</title><path class="cls-1" d="M54.9558,41.2967A17,17,0,0,1,72.104,58.4809,17.1686,17.1686,0,1,1,54.9558,41.2967Zm3.5049,28.0124c5.7115-1.9123,7.535-5.8255,4.6186-10.4249-2.4182-3.814-5.9528-7.0923-4.6562-12.5139l-1.4571-.0509q-2.0388,4.7928-4.0845,9.6015l-2.808-4.1181c-.6375,1.6551-1.0631,2.9888-1.6584,4.242-.6115,1.2875-1.4822,2.4534-2.0764,3.7473-2.1013,4.5755-.1433,8.593,4.2891,9.2517.2317-1.7157.4645-3.44.6538-4.8425,1.778.7107,3.2339,1.8582,4.2132,1.54,1.2013-.3906,2.0041-2.0068,3.6916-3.8869C58.8917,64.8812,58.6812,67.0434,58.4607,69.3091Z" transform="translate(-8.3165 -10.46)"/><path class="cls-1" d="M61.4865,38.4381l-3.3513-.5914c-.363-7.9767-3.3128-14.7265-9.974-19.4852a22.6149,22.6149,0,0,0-15.9843-4.02C21.5775,15.44,12.6939,24.7492,12.138,35.2609c-.7048,13.3278,6.771,22.0375,21.7272,25.09.1312.972.2732,2.023.4155,3.077C22.2863,64.8872,9.14,52.5993,8.3672,39.3486,7.4417,23.4818,19.2949,10.5264,34.7976,10.46A26.6021,26.6021,0,0,1,61.4865,38.4381Z" transform="translate(-8.3165 -10.46)"/><path class="cls-1" d="M35.2761,28.3628a8.7835,8.7835,0,1,1-9.0526,8.2252A8.9821,8.9821,0,0,1,35.2761,28.3628Zm4.7417,8.8287a5.0914,5.0914,0,0,0-4.9914-5.0506,5.0141,5.0141,0,0,0-.1154,10.0272A5.1854,5.1854,0,0,0,40.0178,37.1915Z" transform="translate(-8.3165 -10.46)"/><path class="cls-1" d="M29.2979,17.5393c.8188,2.9132,1.6431,5.846,2.2953,8.1667l-8.1638,8.0981-8.09-2.249A18.45,18.45,0,0,1,29.2979,17.5393Z" transform="translate(-8.3165 -10.46)"/><path class="cls-1" d="M40.0178,37.1915a5.1854,5.1854,0,0,1-5.1068,4.9766,5.0141,5.0141,0,0,1,.1154-10.0272A5.0914,5.0914,0,0,1,40.0178,37.1915Z" transform="translate(-8.3165 -10.46)"/></svg>