<?xml version="1.0" encoding="utf-8"?>
<!-- Generator: Adobe Illustrator 22.1.0, SVG Export Plug-In . SVG Version: 6.00 Build 0)  -->
<svg version="1.1" id="Layer_1" xmlns="http://www.w3.org/2000/svg" xmlns:xlink="http://www.w3.org/1999/xlink" x="0px" y="0px"
	 viewBox="0 0 67.7 74.4" style="enable-background:new 0 0 67.7 74.4;" xml:space="preserve">
<style type="text/css">
	.st0{fill:#FFFFFF;}
</style>
<title>film</title>
<path class="st0" d="M67.7,8.2C67.7,2.1,65,0,59.3,0C40.7,0.2,26.4,0.2,7.8,0C1.8-0.1,0,2.8,0,8.6C0.2,27.8,0.2,47,0,66.3
	c-0.1,6.3,2.5,8.3,8.2,8.1c9.1-0.3,16.1-0.1,25.3-0.1s16.1-0.2,25.3,0.1c6,0.2,9.1-1.6,9-8.5C67.4,46.7,67.5,27.4,67.7,8.2z
	 M12.1,69.3h-8v-8h8V69.3z M12.1,55.4h-8v-8h8V55.4z M12.1,41.4h-8v-8h8V41.4z M12.1,27.4h-8v-8h8V27.4z M12.1,13.5h-8v-8h8V13.5z
	 M50.7,69H16.5V48h34.2V69z M50.9,40.8H16.6V5.3h34.3L50.9,40.8z M63.5,69.3h-8v-8h8V69.3z M63.5,55.4h-8v-8h8V55.4z M63.5,41.4h-8
	v-8h8V41.4z M63.5,27.4h-8v-8h8V27.4z M63.5,13.5h-8v-8h8V13.5z"/>
</svg>
