<?xml version="1.0" encoding="utf-8"?>
<!-- Generator: Adobe Illustrator 22.1.0, SVG Export Plug-In . SVG Version: 6.00 Build 0)  -->
<svg version="1.1" id="Layer_1" xmlns="http://www.w3.org/2000/svg" xmlns:xlink="http://www.w3.org/1999/xlink" x="0px" y="0px"
	 viewBox="0 0 57.8 47.7" style="enable-background:new 0 0 57.8 47.7;" xml:space="preserve">
<style type="text/css">
	.st0{fill:#FFFFFF;}
</style>
<title>laptop</title>
<g id="_7eAFE0">
	<path class="st0" d="M28.8,40.8c-8,0-16,0-24,0c-4.1,0-4.8-0.7-4.8-4.6C0,25.6,0,15,0,4.4C0,0.8,0.8,0,4.4,0c16.4,0,32.8,0,49.3,0
		c2.9,0,4.1,1.1,4.1,4c-0.1,10.9-0.1,21.8,0,32.7c0,3.1-1.4,4.1-4.4,4.1C45.2,40.7,37,40.8,28.8,40.8z M29,3.7c-7.4,0-14.8,0-22.2,0
		C5,3.6,3.9,4,3.9,6.2c0.1,9.5,0.1,19,0,28.5c0,1.9,0.7,2.5,2.6,2.5c14.9,0,29.8,0,44.7,0c1.9,0,2.6-0.6,2.6-2.5
		c-0.1-9.4-0.1-18.8,0-28.2c0-2.2-0.7-2.9-2.9-2.9C43.6,3.7,36.3,3.7,29,3.7z"/>
	<path class="st0" d="M29,47.7c-8.4,0-16.9,0-25.3,0c-1.6,0-3.3,0.2-3.3-2.3c0-2.6,1.8-2.2,3.4-2.2c16.8,0,33.6,0,50.4,0
		c1.7,0,3.3-0.2,3.2,2.4c0,2.1-1.2,2.2-2.8,2.2C46.1,47.7,37.6,47.7,29,47.7z"/>
	<path class="st0" d="M43.9,30.4l-2.6-3l-2.8,2.2c-0.7-3.7-1.3-7.1-2.1-11.5l9.8,6.6L43,26.2l1.6,3.7L43.9,30.4z"/>
</g>
</svg>
