<svg id="Layer_1" data-name="Layer 1" xmlns="http://www.w3.org/2000/svg" viewBox="0 0 68.7394 59.5158"><defs><style>.cls-1,.cls-2{fill:#fff;}.cls-2{stroke:#fff;stroke-miterlimit:10;stroke-width:2px;}</style></defs><title>tv</title><path class="cls-1" d="M62.1772,20.612H15.974A11.3013,11.3013,0,0,0,4.7059,31.88V58.7014A11.3013,11.3013,0,0,0,15.974,69.97H62.1772A11.3012,11.3012,0,0,0,73.4453,58.7014V31.88A11.3012,11.3012,0,0,0,62.1772,20.612ZM59.3,57.045a7.0633,7.0633,0,0,1-7.0426,7.0426H18.2824A7.0633,7.0633,0,0,1,11.24,57.045V33.5364a7.0632,7.0632,0,0,1,7.0425-7.0425H52.2575A7.0633,7.0633,0,0,1,59.3,33.5364Zm7.1189-.0128a2.9765,2.9765,0,1,1,2.9764-2.9765A2.9765,2.9765,0,0,1,66.419,57.0322Zm0-8.5644a2.9764,2.9764,0,1,1,2.9764-2.9765A2.9765,2.9765,0,0,1,66.419,48.4678Zm0-8.5644a2.9764,2.9764,0,1,1,2.9764-2.9764A2.9764,2.9764,0,0,1,66.419,39.9034Z" transform="translate(-4.7059 -10.4537)"/><polyline class="cls-2" points="17.106 0.809 31.85 11.529 45.78 0.809"/></svg>